<svg width="239" height="11" viewBox="0 0 239 11" fill="none" xmlns="http://www.w3.org/2000/svg">
<path d="M8.34583 0.156184L2.57864 1.33098C2.17489 1.41323 1.8064 1.61817 1.52354 1.91779L0.545691 2.95359C-0.230563 3.77584 -0.171301 5.07762 0.67645 5.82594L1.3911 6.45677C1.75654 6.77935 2.2272 6.95737 2.71465 6.95737H5.92324H10.6429C10.8928 6.95737 11.1406 7.00423 11.3733 7.09552L15.5217 8.72302C15.9102 8.87542 16.3366 8.9025 16.7412 8.80045L23.8083 7.01809C23.9682 6.97776 24.1325 6.95737 24.2974 6.95737H31.4128H36.8449C36.9992 6.95737 37.1529 6.97522 37.3031 7.01057L45.1812 8.86501C45.4402 8.92597 45.7087 8.93464 45.9711 8.89053L57.169 7.00775C57.3677 6.97435 57.5702 6.97115 57.7698 6.99826L72.196 8.95737H83.8856C84.0222 8.95737 84.1585 8.97137 84.2923 8.99916L93.301 10.8703C93.5775 10.9277 93.863 10.9259 94.1387 10.8651L102.57 9.00436C102.712 8.97312 102.855 8.95721 103 8.95788C104.774 8.96601 108.145 9.07366 109.014 9.45737C109.89 9.84393 119.301 8.08245 124.363 7.06109C124.699 6.99327 125.046 7.01241 125.372 7.11721L130.494 8.76116C130.891 8.88876 131.319 8.88876 131.716 8.76116L136.772 7.13838C137.14 7.02024 137.534 7.01129 137.907 7.1126L144.442 8.88744C144.613 8.93385 144.789 8.95737 144.966 8.95737H159.252C159.368 8.95737 159.484 8.94718 159.599 8.92691L170.583 6.98782C170.698 6.96756 170.814 6.95737 170.931 6.95737H185.216C185.393 6.95737 185.569 6.98088 185.74 7.02729L192.244 8.79388C192.636 8.90034 193.051 8.88493 193.434 8.74969L197.763 7.22143C198.243 7.05181 198.77 7.07191 199.236 7.27761L202.429 8.68669C202.827 8.86234 203.271 8.90344 203.695 8.80377L211.119 7.05621C211.395 6.99106 211.683 6.98568 211.962 7.04041L221.254 8.86318C221.57 8.92506 221.895 8.90999 222.204 8.81925L228.255 7.0387C228.439 6.98476 228.629 6.95737 228.82 6.95737H237.307C238.331 6.95737 238.604 5.54415 237.653 5.16272L237.464 5.08695C236.824 4.83004 236.758 3.94979 237.352 3.59988C238.018 3.20828 237.836 2.19996 237.075 2.06572L233.839 1.49441C233.7 1.46979 233.558 1.46005 233.417 1.46537L207.683 2.43197C207.245 2.44844 206.813 2.32023 206.454 2.06709L204.897 0.967083C204.437 0.64241 203.862 0.526494 203.312 0.647784L195.752 2.31625C195.336 2.40793 194.902 2.36474 194.513 2.19295L193.516 1.75298C193.084 1.5621 192.597 1.53058 192.144 1.66402L190.315 2.2023C189.763 2.36445 189.169 2.28181 188.683 1.97542L186.113 0.354973C185.707 0.0985206 185.221 -0.00281302 184.746 0.0695335L170.159 2.28953C169.473 2.39386 168.783 2.13569 168.334 1.60729L168.054 1.27784C167.619 0.765611 166.955 0.506253 166.288 0.587491L152.59 2.25533C152.017 2.32504 151.665 1.64613 152.053 1.21871C152.443 0.788598 152.084 0.10608 151.509 0.18303L135.188 2.36583C134.745 2.42514 134.294 2.33406 133.909 2.10717L131.77 0.848866C131.342 0.596924 130.836 0.513324 130.349 0.614343L122.596 2.22469C121.902 2.36884 121.183 2.13482 120.707 1.60955L119.914 0.73469C119.473 0.247924 118.821 0.00883856 118.17 0.0950683L108.082 1.43074C107.949 1.44845 107.813 1.45258 107.679 1.44308L94.1711 0.489194C93.8744 0.46824 93.5767 0.513741 93.2998 0.622382L89.1699 2.24263C88.8126 2.38282 88.4224 2.41722 88.0461 2.34172L76.6169 0.0488271C76.317 -0.0113439 76.0072 -0.00191218 75.7115 0.0763969L71.1746 1.27784C70.7357 1.39406 70.2704 1.3575 69.8551 1.17419L68.9565 0.777608C68.4904 0.571906 67.9634 0.551812 67.4831 0.721427L65.9553 1.26084C65.6333 1.37454 65.2762 1.24091 65.1078 0.943776C64.9465 0.658902 64.6101 0.522747 64.296 0.615164L62.2335 1.22205C61.834 1.33959 61.4337 1.04013 61.4337 0.623718C61.4337 0.263047 61.1287 -0.0224401 60.7688 0.00138548L39.1316 1.43385C38.8966 1.44941 38.6608 1.42335 38.4349 1.35689L35.7209 0.558337C35.494 0.491553 35.257 0.465572 35.0209 0.4816L21.1118 1.42605C20.8622 1.44299 20.6505 1.24516 20.6505 0.995064C20.6505 0.718969 20.3951 0.51374 20.1254 0.573237L16.8254 1.3015C16.4627 1.38153 16.119 1.10546 16.119 0.734065C16.119 0.3461 15.7461 0.067096 15.3739 0.176608L12.081 1.14552C11.4214 1.3396 10.7084 1.18126 10.1929 0.726257L10.0686 0.616532C9.5983 0.201405 8.9605 0.0309737 8.34583 0.156184Z" fill="#FFD700"/>
</svg>
