<svg width="21" height="32" viewBox="0 0 21 32" fill="none" xmlns="http://www.w3.org/2000/svg">
<g clip-path="url(#clip0_0_2975)">
<path d="M3.67309 10.3136C3.43382 10.5241 3.26431 10.8024 3.18711 11.1116C3.10991 11.4208 3.12867 11.7461 3.24092 12.0444C3.35316 12.3426 3.55355 12.5996 3.81544 12.7812C4.07733 12.9628 4.38829 13.0603 4.70696 13.0608C5.08434 13.0608 5.44918 12.9239 5.73247 12.6772C5.80251 12.6186 7.45107 11.222 10.5872 9.78148C12.6069 8.85229 14.6596 7.99662 16.7413 7.21614C17.1354 7.07292 17.448 6.7844 17.6246 6.40493C17.8023 6.02441 17.8212 5.59999 17.6769 5.20588C17.3905 4.41558 16.4538 3.97966 15.6677 4.26923C13.5057 5.077 11.3745 5.96478 9.27838 6.93075C5.63525 8.60334 3.75045 10.2446 3.67309 10.3136ZM4.7676 7.31126C5.08225 7.31126 5.38959 7.21927 5.65825 7.04469C6.17258 6.70704 7.61414 5.81011 9.86901 4.77101C11.1109 4.19975 12.3642 3.65361 13.6282 3.13291C14.0272 2.96704 14.3444 2.64993 14.5103 2.25091C14.6762 1.85188 14.6774 1.40339 14.5136 1.00349C14.3444 0.60788 14.0277 0.293784 13.6307 0.12788C13.2337 -0.0380231 12.7877 -0.0426715 12.3873 0.114922C11.0833 0.652256 9.79027 1.21583 8.50898 1.80529C6.78203 2.60082 5.09375 3.51447 3.87485 4.31209C3.51377 4.54971 3.26141 4.92056 3.17287 5.34364C3.08434 5.76672 3.16683 6.20764 3.40234 6.5701C3.70341 7.03424 4.21355 7.31126 4.7676 7.31126ZM16.7413 12.4775C17.1354 12.3332 17.448 12.0458 17.6246 11.6663C17.8023 11.2858 17.8212 10.8603 17.6769 10.4672C17.3905 9.67694 16.4475 9.24102 15.6677 9.53059C13.5059 10.3388 11.3746 11.2266 9.27838 12.1921C5.63525 13.8647 3.75045 15.5059 3.67205 15.5749C3.50169 15.7242 3.36572 15.9087 3.27347 16.1156C3.18122 16.3225 3.13489 16.5469 3.13768 16.7734C3.14046 16.9999 3.19228 17.2231 3.28958 17.4277C3.38688 17.6322 3.52735 17.8133 3.70132 17.9584L6.27398 20.1035V21.9496H5.75129C5.61285 21.9499 5.48017 22.0051 5.38237 22.1031C5.28457 22.2011 5.22965 22.3339 5.22965 22.4723V27.1827C5.22965 27.8769 5.49099 28.5313 5.96664 29.0247L7.05382 30.1526L7.05592 30.1547L7.27544 30.3837C7.57064 30.6906 7.92444 30.9352 8.3159 31.1029C8.70735 31.2707 9.12849 31.3581 9.55435 31.3601H11.3587C12.2075 31.3601 13.0375 31.0046 13.6355 30.3837L13.8561 30.1547V30.1526L14.9464 29.0236C15.4213 28.5292 15.6853 27.8694 15.6823 27.1838V22.4723C15.6823 22.3337 15.6273 22.2007 15.5292 22.1027C15.4312 22.0047 15.2983 21.9496 15.1596 21.9496H14.637V19.1721L16.9828 17.5622C17.3466 17.3542 17.6079 17.0175 17.7177 16.613C17.8003 16.3109 17.7904 15.9911 17.6895 15.6946C17.5886 15.3982 17.4011 15.1388 17.1514 14.9499C16.9016 14.761 16.601 14.6513 16.2883 14.6349C15.9756 14.6185 15.6651 14.6961 15.3969 14.8578L12.2922 16.9287C12.0521 17.0661 11.8526 17.2643 11.7136 17.5035C11.5747 17.7426 11.5013 18.0142 11.5008 18.2908V21.9496H9.41009V19.3686C9.41009 18.9013 9.2052 18.4623 8.84768 18.1633L7.26499 16.8451C8.05634 16.337 9.16966 15.6941 10.5882 15.0428C12.6079 14.1135 14.6596 13.2579 16.7413 12.4775ZM6.79666 22.9939H14.637V25.1223H6.27398V22.995H6.79666V22.9939ZM13.2571 29.2683H7.65387L6.71826 28.2982C6.44061 28.0044 6.2832 27.6172 6.27711 27.2131H14.6328C14.6269 27.6166 14.4703 28.0032 14.1937 28.2971L13.2571 29.2683Z" fill="white"/>
</g>
<defs>
<clipPath id="clip0_0_2975">
<rect width="20.9074" height="31.3612" fill="white"/>
</clipPath>
</defs>
</svg>
