<svg width="259" height="374" viewBox="0 0 259 374" fill="none" xmlns="http://www.w3.org/2000/svg">
<path d="M9.47712 122.789C5.24283 125.295 2.24305 128.609 0.876844 132.29C-0.489358 135.971 -0.157201 139.845 1.8291 143.395C3.8154 146.946 7.36168 150.006 11.9962 152.168C16.6307 154.33 22.1337 155.491 27.7732 155.497C34.4515 155.497 40.9078 153.866 45.9212 150.929C47.1607 150.232 76.3344 133.605 131.833 116.454C167.575 105.392 203.901 95.2045 240.74 85.9124C247.714 84.2073 253.245 80.7723 256.372 76.2545C259.517 71.7242 259.85 66.6712 257.297 61.9791C252.228 52.5701 235.652 47.3802 221.741 50.8277C183.481 60.4447 145.765 71.0143 108.672 82.5147C44.2007 102.428 10.8461 121.968 9.47712 122.789ZM28.8461 87.0449C34.4145 87.0449 39.8533 85.9497 44.6077 83.8713C53.7095 79.8513 79.2203 69.1728 119.124 56.8017C141.101 50.0005 163.281 43.4984 185.648 37.2992C192.71 35.3244 198.322 31.549 201.259 26.7984C204.195 22.0477 204.216 16.7082 201.317 11.9471C198.323 7.23717 192.718 3.49767 185.693 1.52249C178.667 -0.452687 170.774 -0.50803 163.689 1.36821C140.613 7.7655 117.73 14.4751 95.0559 21.493C64.4947 30.9643 34.618 41.8419 13.0475 51.338C6.65772 54.1669 2.19169 58.5821 0.624944 63.6192C-0.941798 68.6562 0.518099 73.9057 4.68574 78.2209C10.0136 83.7468 19.0414 87.0449 28.8461 87.0449ZM240.74 148.552C247.714 146.834 253.245 143.412 256.372 138.894C259.517 134.364 259.85 129.298 257.297 124.619C252.228 115.21 235.541 110.02 221.741 113.467C183.484 123.089 145.768 133.659 108.672 145.154C44.2007 165.068 10.8461 184.607 9.45861 185.429C6.44398 187.206 4.03763 189.402 2.40516 191.866C0.772693 194.329 -0.0471335 197.001 0.00209253 199.697C0.0513185 202.394 0.968429 205.051 2.69032 207.487C4.41221 209.922 6.89799 212.078 9.97659 213.805L55.5039 239.344V261.323H46.2542C43.8042 261.326 41.4562 261.984 39.7256 263.15C37.9949 264.317 37.0229 265.898 37.0229 267.546V323.627C37.0229 331.891 41.6478 339.682 50.0651 345.556L69.3046 358.985L69.3416 359.01L73.2265 361.736C78.4504 365.39 84.7116 368.302 91.639 370.299C98.5664 372.296 106.019 373.337 113.555 373.36H145.486C160.507 373.36 175.196 369.128 185.778 361.736L189.681 359.01V358.985L208.976 345.544C217.381 339.657 222.052 331.802 222 323.639V267.546C222 265.896 221.025 264.313 219.29 263.146C217.556 261.979 215.203 261.323 212.75 261.323H203.5V228.255L245.013 209.088C251.451 206.612 256.076 202.604 258.018 197.787C259.48 194.191 259.306 190.383 257.52 186.854C255.734 183.325 252.417 180.236 247.997 177.988C243.577 175.739 238.257 174.432 232.723 174.237C227.189 174.041 221.695 174.966 216.949 176.891L162.006 201.546C157.757 203.182 154.226 205.542 151.767 208.389C149.308 211.237 148.009 214.47 148.002 217.763V261.323H111.003V230.595C111.003 225.031 107.377 219.804 101.05 216.245L73.0415 200.55C87.0456 194.502 106.748 186.848 131.851 179.094C167.592 168.03 203.9 157.843 240.74 148.552ZM64.7537 273.756H203.5V299.096H55.5039V273.769H64.7537V273.756ZM179.081 348.456H79.9233L63.3662 336.906C58.4528 333.409 55.6672 328.799 55.5594 323.988H203.426C203.322 328.791 200.55 333.395 195.656 336.894L179.081 348.456Z" fill="#5D38DE"/>
</svg>
