<svg width="17" height="20" viewBox="0 0 17 20" fill="none" xmlns="http://www.w3.org/2000/svg">
<path d="M16.8 9.54011V9.72011C16.8 10.2001 16.5 10.6801 16.08 10.9201L12.78 12.8401L9.59998 9.60011L12.78 6.36011L16.08 8.28011C16.5 8.52011 16.8 9.00011 16.8 9.54011Z" fill="#FDBD04"/>
<path d="M12.78 6.36L9.60004 9.6L0.420044 0.42C0.660044 0.18 1.02004 0 1.44004 0C1.68004 0 1.92004 0.0600001 2.16004 0.18L12.78 6.36Z" fill="#03A846"/>
<path d="M9.6 9.59992L0.42 18.7799C0.18 18.5399 0 18.1799 0 17.7599V1.43992C0 1.01992 0.18 0.719922 0.42 0.419922L9.6 9.59992Z" fill="#0284FE"/>
<path d="M12.78 12.7801L2.10004 19.0201C1.92004 19.1401 1.68004 19.2001 1.44004 19.2001C1.08004 19.2001 0.720044 19.0201 0.420044 18.7801L9.60004 9.6001L12.78 12.7801Z" fill="#FF4131"/>
</svg>
